<svg width="1200" height="1200" viewBox="0 0 1200 1200" fill="none" xmlns="http://www.w3.org/2000/svg">
<circle cx="195.2" cy="415.2" r="35.2" fill="black"/>
<path d="M459.2 380V563.209C459.2 606.81 444.244 644.569 418.238 671.711C391.365 699.754 354.739 714.4 309.6 714.4C265.833 714.4 229.099 700.031 202.743 675.268C171.377 645.789 160.149 605.054 160 563.209C159.999 562.921 160 556.381 160 556.094H231.238C231.238 556.383 231.237 562.92 231.238 563.209C231.553 613.399 257.477 653.923 309.6 653.923C358.393 653.923 387.962 615.446 387.962 563.209V451.149H300.695V380H459.2Z" fill="black"/>
<path d="M459.2 380V563.209C459.2 606.81 444.244 644.569 418.238 671.711C391.365 699.754 354.739 714.4 309.6 714.4C265.833 714.4 229.099 700.031 202.743 675.268C171.377 645.789 160.149 605.054 160 563.209C159.999 562.921 160 556.381 160 556.094H231.238C231.238 556.383 231.237 562.92 231.238 563.209C231.553 613.399 257.477 653.923 309.6 653.923C358.393 653.923 387.962 615.446 387.962 563.209V451.149H300.695V380H459.2Z" fill="black"/>
<path d="M893.92 820C866.654 820 844.88 812.497 827.04 797.12C809.536 782.077 799.139 762.017 797.12 737.28H865.76C866.433 744.634 869.174 750.534 874.56 754.88C879.945 759.56 885.841 761.92 893.92 761.92H936.16C946.595 761.92 954.404 758.291 960.8 749.6C967.532 741.243 971.36 729.866 971.36 716.16V682.72C963.618 693.083 955.058 701.343 944.96 707.36C935.198 713.043 924.801 716.16 915.04 716.16H881.6C855.007 716.16 834.397 707.143 818.24 689.76C802.082 672.043 793.6 648.443 793.6 619.36V468H862.24V621.12C862.24 632.151 865.654 640.5 871.04 647.52C876.762 654.206 883.071 658.08 892.16 658.08H922.08C933.188 658.08 942.911 653.026 952 644C961.088 634.64 967.657 622.083 971.36 607.04V468H1040V716.16C1040 736.886 1036.43 755.009 1027.68 770.72C1019.26 786.431 1006.54 798.989 990.72 807.68C974.899 816.371 956.693 820 936.16 820H893.92Z" fill="black"/>
<path d="M603.52 719.68C582.115 719.68 562.089 715.562 545.44 707.36C529.132 698.816 517.654 687.538 508.48 672.16C499.646 656.781 494.4 637.763 494.4 617.6V557.76C494.4 537.597 499.307 520.338 508.48 504.96C517.654 489.239 530.892 476.543 547.2 468C563.849 459.456 582.115 455.68 603.52 455.68H649.28C670.686 455.68 689.292 459.456 705.6 468C722.249 476.543 735.147 489.239 744.32 504.96C753.494 520.338 758.4 537.597 758.4 557.76V617.6C758.4 637.763 753.494 656.781 744.32 672.16C735.147 687.538 722.249 698.816 705.6 707.36C689.292 715.562 671.026 719.68 649.28 719.68H603.52ZM647.52 659.84C660.092 659.84 669.965 656.063 677.44 647.52C684.915 638.634 689.76 626.331 689.76 612.32V563.04C689.76 549.028 684.915 538.143 677.44 529.6C669.965 520.714 659.752 515.52 647.52 515.52H605.28C593.049 515.52 582.835 520.714 575.36 529.6C567.885 538.143 563.04 549.028 563.04 563.04V612.32C563.04 626.331 567.885 638.634 575.36 647.52C582.835 656.063 591.628 659.84 603.52 659.84H647.52Z" fill="black"/>
</svg>
